HIERARCHY
ROOT Hips
{
	OFFSET 0.000000 0.000000 0.000000 
	CHANNELS 6 Xposition Yposition Zposition Yrotation Zrotation Xrotation 
	JOINT Lumbar
	{
		OFFSET 0.000000 0.000000 0.000000 
		CHANNELS 3 Zrotation Xrotation Yrotation
		JOINT Neck
		{
			OFFSET 0.000000 0.445665 0.000000 
			CHANNELS 3 Zrotation Xrotation Yrotation
			End Site
			{
				OFFSET 0.000000 0.227535 0.000000 
			}
		}
		JOINT RightShoulder
		{
			OFFSET 0.019635 0.377685 0.194865 
			CHANNELS 3 Zrotation Xrotation Yrotation
			JOINT RightElbow
			{
				OFFSET 0.000000 -0.243375 0.000000 
				CHANNELS 2 Zrotation Yrotation
				JOINT RightWrist
				{
					OFFSET 0.000000 -0.264825 0.000000 
					CHANNELS 2 Zrotation Xrotation
					End Site
					{
						OFFSET 0.006600 -0.176220 0.000990 
					}
				}
			}
		}
		JOINT LeftShoulder
		{
			OFFSET 0.019635 0.377685 -0.194865 
			CHANNELS 3 Zrotation Xrotation Yrotation
			JOINT LeftElbow
			{
				OFFSET 0.000000 -0.243375 0.000000 
				CHANNELS 2 Zrotation Yrotation
				JOINT LeftWrist
				{
					OFFSET 0.000000 -0.264825 0.000000 
					CHANNELS 2 Zrotation Xrotation
					End Site
					{
						OFFSET 0.006600 -0.176220 -0.000990 
					}
				}
			}
		}
	}
	JOINT RightHip
	{
		OFFSET 0.052140 -0.069960 0.075570 
		CHANNELS 3 Zrotation Xrotation Yrotation
		JOINT RightKnee
		{
			OFFSET 0.000000 -0.402270 0.000000 
			CHANNELS 1 Zrotation
			JOINT RightAnkle
			{
				OFFSET 0.000000 -0.404085 0.000000 
				CHANNELS 3 Zrotation Xrotation Yrotation
				End Site
				{
					OFFSET 0.204105 -0.089430 0.008415 
				}
			}
		}
	}
	JOINT LeftHip
	{
		OFFSET 0.052140 -0.069960 -0.075570 
		CHANNELS 3 Zrotation Xrotation Yrotation
		JOINT LeftKnee
		{
			OFFSET 0.000000 -0.402270 0.000000 
			CHANNELS 1 Zrotation
			JOINT LeftAnkle
			{
				OFFSET 0.000000 -0.404085 0.000000 
				CHANNELS 3 Zrotation Xrotation Yrotation
				End Site
				{
					OFFSET 0.204105 -0.089430 -0.008415 
				}
			}
		}
	}
}
MOTION
Frames: 28
Frame Time: 0.02
-0.00013 -0 7e-05 -178.95147 -33.41508 -3.23231 42.46156 2.08878 -4.74476 -13.5896 -0.94366 -0.43512 72.53151 -100.73177 64.16952 5.99812 99.34844 11.59869 0.67945 57.98775 100.76415 -64.17365 6.67826 -92.94354 8.66516 0.45238 38.35622 -3.03321 -1.26575 -22.60384 -7.2134 -4.22308 -2.80695 42.77658 8.20767 -0.96328 -27.79303 -6.67551 2.88655 2.15501
-0.00024 -0 9e-05 -178.95302 -33.43009 -3.23113 42.4712 2.08799 -4.76501 -13.58567 -0.94612 -0.43526 72.48858 -100.74289 64.16952 6.00273 99.36693 11.59835 0.6686 58.04966 100.74949 -64.17315 6.67135 -92.9564 8.66722 0.45303 38.36281 -3.08783 -1.52941 -22.60232 -7.19207 -4.16843 -2.78384 42.78672 8.23144 -0.8597 -27.79352 -6.67523 2.8807 2.14848
-0.00034 0 0.00011 -178.95452 -33.44484 -3.22994 42.4806 2.08718 -4.78525 -13.58174 -0.94856 -0.43541 72.44551 -100.75403 64.16952 6.00736 99.38537 11.59804 0.65774 58.11113 100.73492 -64.17265 6.66448 -92.96921 8.66925 0.45369 38.36906 -3.14231 -1.7924 -22.60076 -7.1708 -4.11394 -2.76079 42.79654 8.25516 -0.75629 -27.79398 -6.67495 2.87485 2.14195
-0.00044 1e-05 0.00013 -178.95606 -33.45975 -3.22876 42.49016 2.08639 -4.80545 -13.57782 -0.95101 -0.43556 72.40266 -100.76514 64.16952 6.01196 99.4038 11.59771 0.64691 58.17281 100.72031 -64.17215 6.6576 -92.98203 8.67131 0.45434 38.37556 -3.19677 -2.05527 -22.59923 -7.14954 -4.05946 -2.73775 42.80658 8.27885 -0.653 -27.79447 -6.67468 2.86901 2.13544
-0.00055 1e-05 0.00015 -178.95767 -33.47506 -3.2276 42.50008 2.08562 -4.82562 -13.57392 -0.95347 -0.4357 72.36006 -100.77621 64.16952 6.01653 99.42228 11.59735 0.63609 58.23504 100.7056 -64.17164 6.65067 -92.99491 8.6734 0.45497 38.38256 -3.25136 -2.31873 -22.59779 -7.12823 -4.00483 -2.71465 42.81711 8.30258 -0.54959 -27.795 -6.67441 2.86319 2.12892
-0.00065 2e-05 0.00017 -178.95894 -33.48863 -3.22636 42.50843 2.08474 -4.846 -13.56993 -0.95587 -0.43585 72.31604 -100.78749 64.16952 6.02126 99.44064 11.59712 0.62514 58.29491 100.69133 -64.17114 6.64393 -93.00758 8.6753 0.4557 38.38729 -3.30562 -2.58073 -22.59598 -7.10706 -3.95063 -2.69171 42.82547 8.32628 -0.44621 -27.7953 -6.67411 2.85726 2.12239
-0.00075 2e-05 0.00019 -178.96085 -33.50556 -3.22527 42.5198 2.08408 -4.86598 -13.56611 -0.9584 -0.43599 72.27487 -100.79835 64.16952 6.02568 99.45922 11.59664 0.61447 58.35945 100.67618 -64.17064 6.6368 -93.02064 8.67758 0.45623 38.39642 -3.36048 -2.8454 -22.59487 -7.08562 -3.89564 -2.66848 42.83803 8.35002 -0.34285 -27.79607 -6.67387 2.85155 2.11588
-0.00086 2e-05 0.00021 -178.96225 -33.51963 -3.22406 42.52862 2.08323 -4.88627 -13.56214 -0.96081 -0.43614 72.23117 -100.80958 64.16953 6.03038 99.47761 11.59639 0.60355 58.41967 100.66184 -64.17014 6.63005 -93.03335 8.67952 0.45695 38.40179 -3.41477 -3.10753 -22.59317 -7.06443 -3.84137 -2.64551 42.84699 8.37371 -0.23954 -27.79643 -6.67358 2.84565 2.10936
-0.00097 3e-05 0.00023 -178.96273 -33.52922 -3.22261 42.53334 2.08207 -4.90718 -13.55797 -0.96305 -0.43629 72.18391 -100.82134 64.16953 6.03546 99.49572 11.59643 0.59227 58.47465 100.64848 -64.16965 6.62372 -93.04561 8.68101 0.45788 38.40132 -3.46847 -3.36704 -22.59053 -7.04354 -3.78797 -2.62286 42.85043 8.39739 -0.13596 -27.79617 -6.6732 2.83948 2.10278
-0.00105 3e-05 0.00025 -178.96762 -33.56163 -3.22228 42.5587 2.0825 -4.92522 -13.55492 -0.96619 -0.43642 72.15574 -100.83029 64.16953 6.03845 99.51526 11.59481 0.58291 58.55992 100.62948 -64.1691 6.61484 -93.06041 8.68498 0.45755 38.43072 -3.52588 -3.6431 -22.59265 -7.02089 -3.72951 -2.59837 42.88227 8.42128 -0.03292 -27.79911 -6.67327 2.83472 2.09644
-0.00119 3e-05 0.00027 -178.96376 -33.54782 -3.21974 42.54243 2.07968 -4.9489 -13.5495 -0.96748 -0.4366 72.08821 -100.84498 64.16953 6.04577 99.5319 11.59669 0.56959 58.58122 100.62238 -64.16867 6.6114 -93.06986 8.68377 0.4599 38.39952 -3.57525 -3.88326 -22.58513 -7.00198 -3.68178 -2.57779 42.85638 8.44464 0.07058 -27.79556 -6.67242 2.82709 2.08965
-0.00145 2e-05 0.00027 -178.93083 -33.38975 -3.2098 42.3944 2.06689 -4.99181 -13.53748 -0.96336 -0.4369 71.90421 -100.87717 64.16953 6.06584 99.53975 11.60819 0.54448 58.42592 100.64831 -64.16859 6.62248 -93.06462 8.66785 0.46947 38.17994 -3.60409 -4.03215 -22.5476 -6.99325 -3.6634 -2.56766 42.65196 8.46736 0.18099 -27.77168 -6.66896 2.81049 2.081
-0.00176 0 0.00026 -178.88994 -33.18824 -3.19785 42.20753 2.05101 -5.03976 -13.52309 -0.95743 -0.43725 71.68253 -100.91475 64.16954 6.09006 99.54484 11.62318 0.5156 58.20679 100.68608 -64.16863 6.63908 -93.05404 8.64681 0.48174 37.90326 -3.6246 -4.1438 -22.50101 -6.98829 -3.65582 -2.56149 42.39301 8.48941 0.29086 -27.74171 -6.6646 2.79119 2.072
-0.00205 -1e-05 0.00026 -178.85609 -33.01832 -3.18771 42.05018 2.03728 -5.0829 -13.50981 -0.95254 -0.43759 71.48327 -100.94878 64.16955 6.11185 99.55173 11.63658 0.48897 58.01734 100.71823 -64.16861 6.65344 -93.04591 8.62845 0.49292 37.66753 -3.64786 -4.26757 -22.46098 -6.98166 -3.6434 -2.5537 42.17254 8.51126 0.39718 -27.71623 -6.66071 2.77385 2.06356
-0.00234 -3e-05 0.00025 -178.80814 -32.79937 -3.17389 41.84375 2.0205 -5.13648 -13.49633 -0.94677 -0.43791 71.26045 -100.98763 64.16953 6.13609 99.55633 11.65008 0.45989 57.82413 100.75156 -64.1686 6.66671 -93.03761 8.60861 0.50362 37.36973 -3.67532 -4.41092 -22.41085 -6.97484 -3.63075 -2.5452 41.89537 8.53525 0.51928 -27.68364 -6.65656 2.75346 2.05345
-0.00264 -5e-05 0.00025 -178.78724 -32.6709 -3.16715 41.72897 2.00923 -5.16976 -13.48276 -0.94236 -0.43826 71.07916 -101.01753 64.16959 6.15602 99.56502 11.6641 0.43522 57.6246 100.78506 -64.1686 6.6835 -93.02849 8.59062 0.51584 37.18597 -3.69222 -4.50542 -22.37934 -6.9693 -3.6211 -2.53908 41.72182 8.55463 0.6087 -27.66421 -6.65274 2.73873 2.04669
-0.00293 -7e-05 0.00025 -178.84681 -32.81467 -3.18133 41.88873 2.01476 -5.14369 -13.46919 -0.9426 -0.43868 71.00999 -101.023 64.16986 6.16481 99.58589 11.67951 0.42191 57.41557 100.81764 -64.16859 6.70926 -93.01757 8.57914 0.53254 37.34589 -3.68061 -4.46768 -22.40363 -6.9664 -3.61726 -2.53881 41.86126 8.56125 0.60541 -27.68429 -6.65005 2.74075 2.04964
-0.00323 -9e-05 0.00024 -178.93316 -33.04886 -3.20254 42.13988 2.0258 -5.09741 -13.45569 -0.94421 -0.43911 70.98605 -101.01903 64.17022 6.16883 99.61095 11.69512 0.41347 57.20415 100.84966 -64.16859 6.73824 -93.00619 8.56968 0.55046 37.61983 -3.6589 -4.38315 -22.44657 -6.96464 -3.61605 -2.54075 42.1044 8.56331 0.56979 -27.71751 -6.64771 2.74847 2.05591
-0.00353 -0.00012 0.00024 -179.00478 -33.2339 -3.21996 42.34133 2.03377 -5.06175 -13.44236 -0.94491 -0.43953 70.94925 -101.01828 64.17053 6.17385 99.63397 11.71013 0.40396 56.99847 100.88097 -64.1686 6.7654 -92.99559 8.55918 0.56723 37.83179 -3.64275 -4.32444 -22.47956 -6.96231 -3.61351 -2.54149 42.29115 8.56759 0.55062 -27.7436 -6.6452 2.75329 2.0604
-0.00383 -0.00014 0.00024 -179.08698 -33.4513 -3.23982 42.57578 2.04399 -5.0202 -13.42805 -0.94675 -0.43998 70.87899 -101.02207 64.17088 6.18381 99.65745 11.72756 0.38959 56.76964 100.91691 -64.16856 6.79436 -92.98237 8.54901 0.58673 38.0845 -3.62227 -4.24571 -22.51844 -6.96033 -3.61184 -2.54317 42.51487 8.5712 0.52385 -27.77434 -6.64274 2.75936 2.066
-0.00412 -0.00016 0.00024 -179.15354 -33.62352 -3.2563 42.76386 2.05091 -4.98605 -13.41587 -0.94658 -0.44037 70.88921 -101.01428 64.17116 6.18246 99.68099 11.73979 0.38646 56.5909 100.94274 -64.16863 6.82012 -92.9746 8.53873 0.60066 38.28037 -3.60842 -4.19741 -22.54962 -6.95786 -3.60892 -2.54342 42.6872 8.57517 0.50547 -27.79864 -6.64026 2.76418 2.07012
-0.00443 -0.00018 0.00025 -179.17112 -33.6471 -3.26177 42.80012 2.04711 -4.97725 -13.40924 -0.94033 -0.44064 71.11469 -100.97505 64.17121 6.14978 99.70391 11.73892 0.41388 56.53797 100.94228 -64.16907 6.83764 -92.9818 8.52711 0.59993 38.28939 -3.61633 -4.2508 -22.55469 -6.95353 -3.60119 -2.53869 42.68996 8.58102 0.51622 -27.80163 -6.63766 2.76441 2.06908
-0.00473 -0.00019 0.00026 -179.17192 -33.62245 -3.2636 42.78684 2.03986 -4.97657 -13.40486 -0.93205 -0.44086 71.41896 -100.92481 64.17118 6.10616 99.72672 11.73256 0.45232 56.53842 100.93133 -64.16962 6.85162 -92.99463 8.51537 0.59333 38.23773 -3.63116 -4.33573 -22.55142 -6.9487 -3.59216 -2.5325 42.63792 8.58745 0.53694 -27.79777 -6.63503 2.76315 2.06649
-0.00504 -0.00021 0.00027 -179.18001 -33.62148 -3.2671 42.79759 2.03437 -4.97219 -13.39964 -0.92486 -0.4411 71.68478 -100.88072 64.17119 6.06829 99.74945 11.7278 0.48528 56.5232 100.92412 -64.17009 6.86613 -93.00496 8.50414 0.58871 38.21573 -3.64214 -4.40203 -22.55222 -6.94423 -3.58414 -2.5273 42.61301 8.59379 0.55435 -27.79733 -6.6324 2.76242 2.06483
-0.00534 -0.00023 0.00028 -179.19059 -33.61697 -3.27081 42.80583 2.02828 -4.96722 -13.39355 -0.91707 -0.44134 71.96363 -100.83138 64.17119 6.02675 99.77284 11.72674 0.52044 56.47112 100.92116 -64.17069 6.88491 -93.01476 8.4913 0.58703 38.18974 -3.65551 -4.48378 -22.55263 -6.93924 -3.57453 -2.52089 42.58315 8.59925 0.56535 -27.79613 -6.62986 2.76253 2.06242
-0.00564 -0.00024 0.0003 -179.19149 -33.60627 -3.27308 42.80542 2.02251 -4.96559 -13.38992 -0.90994 -0.44156 72.23308 -100.79057 64.17118 5.99058 99.7948 11.7168 0.55355 56.50912 100.90696 -64.17106 6.89442 -93.02732 8.48144 0.57781 38.15506 -3.66596 -4.54272 -22.55144 -6.93518 -3.56778 -2.51653 42.54817 8.60671 0.59264 -27.79461 -6.62712 2.76042 2.06104
-0.00592 -0.00027 0.00038 -179.17101 -33.59838 -3.27277 42.80131 2.01891 -4.97167 -13.39165 -0.90581 -0.44169 72.46147 -100.77543 64.17119 5.96993 99.81253 11.68244 0.57862 56.77951 100.86352 -64.17071 6.87526 -93.04464 8.4824 0.54949 38.12105 -3.66408 -4.51957 -22.54936 -6.93417 -3.57038 -2.51885 42.52166 8.61966 0.66082 -27.79483 -6.62389 2.75288 2.06385
-0.00619 -0.0003 0.00048 -179.14112 -33.58435 -3.27104 42.78861 2.01566 -4.98074 -13.39598 -0.90224 -0.4418 72.67735 -100.76938 64.17118 5.95563 99.82881 11.63952 0.60118 57.14042 100.80929 -64.17013 6.84795 -93.06559 8.48574 0.51384 38.07848 -3.65945 -4.47423 -22.54566 -6.93407 -3.57573 -2.52316 42.4901 8.63451 0.74514 -27.79479 -6.62047 2.74311 2.06761
